<svg viewBox="0 0 36 36" fill="none" xmlns="http://www.w3.org/2000/svg">
<path d="M7.33869 15.9473C10.1387 21.45 14.6498 25.9417 20.1526 28.7612L24.4304 24.4834C24.9554 23.9584 25.7331 23.7834 26.4137 24.0167C28.5915 24.7362 30.9442 25.125 33.3554 25.125C34.4248 25.125 35.2998 26 35.2998 27.0695V33.8556C35.2998 34.925 34.4248 35.8 33.3554 35.8C15.097 35.8 0.299805 21.0028 0.299805 2.74449C0.299805 1.67505 1.1748 0.800049 2.24425 0.800049H9.0498C10.1192 0.800049 10.9942 1.67505 10.9942 2.74449C10.9942 5.17505 11.3831 7.50838 12.1026 9.68616C12.3165 10.3667 12.1609 11.125 11.6165 11.6695L7.33869 15.9473Z" fill="#17B6C0"/>
</svg>
