<svg viewBox="0 0 359 108" fill="none" xmlns="http://www.w3.org/2000/svg">
<circle cx="53.55" cy="53.55" r="53.55" fill="white"/>
<path d="M135.825 56.1625C135.825 78.3436 117.844 96.325 95.6625 96.325C73.4814 96.325 55.5 78.3436 55.5 56.1625C55.5 33.9814 73.4814 16 95.6625 16C117.844 16 135.825 33.9814 135.825 56.1625Z" fill="#17B6C0" fill-opacity="0.6"/>
<path d="M75.3837 69V41H92.7037V42.84H76.8237L77.4237 42.2V69H75.3837ZM110.438 69V64.24L110.358 63.52V55.68C110.358 53.7333 109.825 52.2533 108.758 51.24C107.718 50.2267 106.185 49.72 104.158 49.72C102.718 49.72 101.371 49.9733 100.118 50.48C98.8914 50.96 97.8381 51.5867 96.9581 52.36L95.9581 50.92C96.9981 49.9867 98.2514 49.2667 99.7181 48.76C101.185 48.2267 102.718 47.96 104.318 47.96C106.905 47.96 108.891 48.6133 110.278 49.92C111.665 51.2267 112.358 53.1733 112.358 55.76V69H110.438ZM102.918 69.16C101.371 69.16 100.025 68.92 98.8781 68.44C97.7581 67.9333 96.8914 67.2267 96.2781 66.32C95.6914 65.4133 95.3981 64.3733 95.3981 63.2C95.3981 62.1333 95.6381 61.1733 96.1181 60.32C96.6248 59.44 97.4514 58.7333 98.5981 58.2C99.7448 57.64 101.278 57.36 103.198 57.36H110.878V58.92H103.238C101.078 58.92 99.5581 59.32 98.6781 60.12C97.8248 60.92 97.3981 61.92 97.3981 63.12C97.3981 64.4533 97.9048 65.52 98.9181 66.32C99.9314 67.12 101.358 67.52 103.198 67.52C104.958 67.52 106.438 67.12 107.638 66.32C108.865 65.52 109.771 64.36 110.358 62.84L110.918 64.2C110.358 65.72 109.398 66.9333 108.038 67.84C106.705 68.72 104.998 69.16 102.918 69.16ZM125.136 69.2C126.763 69.2 128.243 68.9467 129.576 68.44C130.936 67.9333 132.016 67.2133 132.816 66.28C133.616 65.3467 134.016 64.2533 134.016 63C134.016 61.4267 133.35 60.1733 132.016 59.24C130.71 58.3067 128.856 57.84 126.456 57.84L126.296 58.48C127.63 58.48 128.83 58.2667 129.896 57.84C130.99 57.4133 131.843 56.8267 132.456 56.08C133.096 55.3067 133.416 54.4 133.416 53.36C133.416 52.2133 133.043 51.24 132.296 50.44C131.55 49.6133 130.536 48.9867 129.256 48.56C127.976 48.1067 126.563 47.8933 125.016 47.92C123.79 47.9467 122.576 48.12 121.376 48.44C120.176 48.76 118.99 49.24 117.816 49.88L118.456 51.48C119.523 50.8933 120.603 50.4533 121.696 50.16C122.816 49.8667 123.896 49.7067 124.936 49.68C126.136 49.68 127.216 49.8267 128.176 50.12C129.163 50.4133 129.936 50.8667 130.496 51.48C131.083 52.0667 131.376 52.7867 131.376 53.64C131.376 54.4133 131.123 55.0933 130.616 55.68C130.136 56.24 129.456 56.6667 128.576 56.96C127.723 57.2533 126.736 57.4 125.616 57.4H122.336V58.92H125.696C127.643 58.92 129.176 59.2667 130.296 59.96C131.416 60.6533 131.976 61.6267 131.976 62.88C131.976 63.7333 131.696 64.5067 131.136 65.2C130.576 65.8933 129.776 66.44 128.736 66.84C127.723 67.24 126.536 67.44 125.176 67.44C123.843 67.4667 122.51 67.28 121.176 66.88C119.843 66.4533 118.67 65.8133 117.656 64.96L116.896 66.44C118.016 67.3733 119.31 68.0667 120.776 68.52C122.243 68.9733 123.696 69.2 125.136 69.2ZM241.368 69.2C239.288 69.2 237.355 68.8533 235.568 68.16C233.808 67.44 232.261 66.44 230.928 65.16C229.621 63.8533 228.608 62.3467 227.888 60.64C227.168 58.9067 226.808 57.0267 226.808 55C226.808 52.9733 227.168 51.1067 227.888 49.4C228.608 47.6667 229.621 46.16 230.928 44.88C232.261 43.5733 233.808 42.5733 235.568 41.88C237.355 41.16 239.288 40.8 241.368 40.8C243.448 40.8 245.368 41.16 247.128 41.88C248.915 42.5733 250.461 43.56 251.768 44.84C253.075 46.12 254.088 47.6267 254.808 49.36C255.555 51.0667 255.928 52.9467 255.928 55C255.928 57.0533 255.555 58.9467 254.808 60.68C254.088 62.3867 253.075 63.88 251.768 65.16C250.461 66.44 248.915 67.44 247.128 68.16C245.368 68.8533 243.448 69.2 241.368 69.2ZM241.368 67.32C243.155 67.32 244.808 67.0133 246.328 66.4C247.848 65.7867 249.168 64.92 250.288 63.8C251.408 62.68 252.275 61.3733 252.888 59.88C253.528 58.3867 253.848 56.76 253.848 55C253.848 53.2133 253.528 51.5867 252.888 50.12C252.275 48.6267 251.408 47.32 250.288 46.2C249.168 45.08 247.848 44.2133 246.328 43.6C244.808 42.9867 243.155 42.68 241.368 42.68C239.581 42.68 237.928 42.9867 236.408 43.6C234.888 44.2133 233.555 45.08 232.408 46.2C231.288 47.32 230.408 48.6267 229.768 50.12C229.155 51.5867 228.848 53.2133 228.848 55C228.848 56.76 229.155 58.3867 229.768 59.88C230.408 61.3733 231.288 62.68 232.408 63.8C233.555 64.92 234.888 65.7867 236.408 66.4C237.928 67.0133 239.581 67.32 241.368 67.32ZM262.75 69V48.12H264.75V65.92L279.63 48.12H281.39V69H279.39V51.2L264.51 69H262.75ZM271.99 44.92C270.363 44.92 269.016 44.4933 267.95 43.64C266.91 42.76 266.363 41.5467 266.31 40H267.79C267.843 41.0933 268.256 41.96 269.03 42.6C269.83 43.24 270.816 43.56 271.99 43.56C273.163 43.56 274.136 43.24 274.91 42.6C275.71 41.96 276.123 41.0933 276.15 40H277.67C277.643 41.5467 277.096 42.76 276.03 43.64C274.99 44.4933 273.643 44.92 271.99 44.92ZM285.895 68.92L286.095 67.2C286.255 67.2267 286.415 67.2667 286.575 67.32C286.762 67.3467 286.922 67.36 287.055 67.36C287.962 67.36 288.682 67.0267 289.215 66.36C289.749 65.6667 290.149 64.7467 290.415 63.6C290.709 62.4533 290.909 61.16 291.015 59.72C291.149 58.28 291.255 56.8133 291.335 55.32L291.695 48.12H306.335V69H304.335V49.28L304.895 49.92H292.975L293.495 49.24L293.175 55.48C293.069 57.2933 292.922 59.0267 292.735 60.68C292.549 62.3333 292.269 63.8 291.895 65.08C291.522 66.36 290.989 67.3733 290.295 68.12C289.602 68.84 288.709 69.2 287.615 69.2C287.349 69.2 287.069 69.1733 286.775 69.12C286.509 69.0667 286.215 69 285.895 68.92Z" fill="white"/>
<path d="M137.871 41H143.871L150.471 50.36L157.071 41H163.151L153.751 54.44L163.911 69H157.751L150.471 58.8L143.231 69H137.231L147.351 54.64L137.871 41ZM167.376 69V47.64H172.376V61.72L184.176 47.64H188.736V69H183.736V54.92L171.976 69H167.376ZM195.462 69V47.64H200.702L209.302 62.8H207.222L216.262 47.64H220.942L220.982 69H216.462V53L217.262 53.52L209.262 66.76H207.102L199.062 53.16L200.022 52.92V69H195.462Z" fill="#17B6C0"/>
<path d="M311.43 47.0525C310.555 47.0525 309.744 46.895 308.997 46.58C308.251 46.265 307.598 45.8275 307.038 45.2675C306.478 44.6958 306.04 44.0367 305.725 43.29C305.422 42.5433 305.27 41.7383 305.27 40.875C305.27 40.0117 305.428 39.2067 305.743 38.46C306.058 37.7133 306.495 37.06 307.055 36.5C307.615 35.9283 308.268 35.485 309.015 35.17C309.773 34.855 310.59 34.6975 311.465 34.6975C312.34 34.6975 313.151 34.855 313.898 35.17C314.656 35.4733 315.309 35.905 315.858 36.465C316.418 37.025 316.849 37.6783 317.153 38.425C317.468 39.16 317.625 39.965 317.625 40.84C317.625 41.715 317.468 42.5317 317.153 43.29C316.838 44.0367 316.394 44.6958 315.823 45.2675C315.263 45.8275 314.609 46.265 313.863 46.58C313.116 46.895 312.305 47.0525 311.43 47.0525ZM313.285 44.3225L311.57 41.68H313.075L314.79 44.3225H313.285ZM311.413 46.09C312.159 46.09 312.848 45.9558 313.478 45.6875C314.108 45.4192 314.656 45.0517 315.123 44.585C315.601 44.1067 315.968 43.5467 316.225 42.905C316.482 42.2633 316.61 41.575 316.61 40.84C316.61 40.105 316.482 39.4225 316.225 38.7925C315.968 38.1625 315.607 37.6142 315.14 37.1475C314.685 36.6808 314.143 36.3192 313.513 36.0625C312.894 35.7942 312.212 35.66 311.465 35.66C310.718 35.66 310.024 35.7942 309.383 36.0625C308.753 36.3192 308.204 36.6867 307.738 37.165C307.283 37.6433 306.921 38.1975 306.653 38.8275C306.396 39.4575 306.268 40.14 306.268 40.875C306.268 41.61 306.396 42.2925 306.653 42.9225C306.909 43.5525 307.271 44.1067 307.738 44.585C308.204 45.0633 308.753 45.4367 309.383 45.705C310.013 45.9617 310.689 46.09 311.413 46.09ZM308.858 44.3225V37.4275H311.728C312.638 37.4275 313.349 37.6433 313.863 38.075C314.376 38.5067 314.633 39.09 314.633 39.825C314.633 40.5833 314.376 41.1725 313.863 41.5925C313.349 42.0125 312.638 42.2225 311.728 42.2225H310.363V44.3225H308.858ZM310.345 41.05H311.64C312.13 41.05 312.509 40.945 312.778 40.735C313.046 40.5133 313.18 40.21 313.18 39.825C313.18 39.44 313.046 39.1425 312.778 38.9325C312.509 38.7225 312.13 38.6175 311.64 38.6175H310.345V41.05Z" fill="#17B6C0"/>
</svg>
