<svg viewBox="0 0 663 150" fill="none" xmlns="http://www.w3.org/2000/svg">
<circle cx="111.97" cy="74.97" r="74.97" fill="#757575" fill-opacity="0.5"/>
<path d="M227.155 78.6275C227.155 109.681 201.981 134.855 170.928 134.855C139.874 134.855 114.7 109.681 114.7 78.6275C114.7 47.5739 139.874 22.4 170.928 22.4C201.981 22.4 227.155 47.5739 227.155 78.6275Z" fill="#17B6C0" fill-opacity="0.6"/>
<path d="M101.267 104V48H135.907V51.68H104.147L105.347 50.4V104H101.267ZM171.376 104V94.48L171.216 93.04V77.36C171.216 73.4667 170.15 70.5067 168.016 68.48C165.936 66.4533 162.87 65.44 158.816 65.44C155.936 65.44 153.243 65.9467 150.736 66.96C148.283 67.92 146.176 69.1733 144.416 70.72L142.416 67.84C144.496 65.9733 147.003 64.5333 149.936 63.52C152.87 62.4533 155.936 61.92 159.136 61.92C164.31 61.92 168.283 63.2267 171.056 65.84C173.83 68.4533 175.216 72.3467 175.216 77.52V104H171.376ZM156.336 104.32C153.243 104.32 150.55 103.84 148.256 102.88C146.016 101.867 144.283 100.453 143.056 98.64C141.883 96.8267 141.296 94.7467 141.296 92.4C141.296 90.2667 141.776 88.3467 142.736 86.64C143.75 84.88 145.403 83.4667 147.696 82.4C149.99 81.28 153.056 80.72 156.896 80.72H172.256V83.84H156.976C152.656 83.84 149.616 84.64 147.856 86.24C146.15 87.84 145.296 89.84 145.296 92.24C145.296 94.9067 146.31 97.04 148.336 98.64C150.363 100.24 153.216 101.04 156.896 101.04C160.416 101.04 163.376 100.24 165.776 98.64C168.23 97.04 170.043 94.72 171.216 91.68L172.336 94.4C171.216 97.44 169.296 99.8667 166.576 101.68C163.91 103.44 160.496 104.32 156.336 104.32ZM200.772 104.4C204.026 104.4 206.986 103.893 209.652 102.88C212.372 101.867 214.532 100.427 216.132 98.56C217.732 96.6933 218.532 94.5067 218.532 92C218.532 88.8533 217.199 86.3467 214.532 84.48C211.919 82.6133 208.212 81.68 203.412 81.68L203.092 82.96C205.759 82.96 208.159 82.5333 210.292 81.68C212.479 80.8267 214.186 79.6533 215.412 78.16C216.692 76.6133 217.332 74.8 217.332 72.72C217.332 70.4267 216.586 68.48 215.092 66.88C213.599 65.2267 211.572 63.9733 209.012 63.12C206.452 62.2133 203.626 61.7867 200.532 61.84C198.079 61.8933 195.652 62.24 193.252 62.88C190.852 63.52 188.479 64.48 186.132 65.76L187.412 68.96C189.546 67.7867 191.706 66.9067 193.892 66.32C196.132 65.7333 198.292 65.4133 200.372 65.36C202.772 65.36 204.932 65.6533 206.852 66.24C208.826 66.8267 210.372 67.7333 211.492 68.96C212.666 70.1333 213.252 71.5733 213.252 73.28C213.252 74.8267 212.746 76.1867 211.732 77.36C210.772 78.48 209.412 79.3333 207.652 79.92C205.946 80.5067 203.972 80.8 201.732 80.8H195.172V83.84H201.892C205.786 83.84 208.852 84.5333 211.092 85.92C213.332 87.3067 214.452 89.2533 214.452 91.76C214.452 93.4667 213.892 95.0133 212.772 96.4C211.652 97.7867 210.052 98.88 207.972 99.68C205.946 100.48 203.572 100.88 200.852 100.88C198.186 100.933 195.519 100.56 192.852 99.76C190.186 98.9067 187.839 97.6267 185.812 95.92L184.292 98.88C186.532 100.747 189.119 102.133 192.052 103.04C194.986 103.947 197.892 104.4 200.772 104.4Z" fill="white"/>
<path d="M226.242 48H238.242L251.442 66.72L264.642 48H276.802L258.002 74.88L278.322 104H266.002L251.442 83.6L236.962 104H224.962L245.202 75.28L226.242 48ZM285.251 104V61.28H295.251V89.44L318.851 61.28H327.971V104H317.971V75.84L294.451 104H285.251ZM341.423 104V61.28H351.903L369.103 91.6H364.943L383.023 61.28H392.383L392.463 104H383.423V72L385.023 73.04L369.023 99.52H364.703L348.623 72.32L350.543 71.84V104H341.423Z" fill="#17B6C0"/>
<path d="M433.236 104.4C429.076 104.4 425.21 103.707 421.636 102.32C418.116 100.88 415.023 98.88 412.356 96.32C409.743 93.7067 407.716 90.6933 406.276 87.28C404.836 83.8133 404.116 80.0533 404.116 76C404.116 71.9467 404.836 68.2133 406.276 64.8C407.716 61.3333 409.743 58.32 412.356 55.76C415.023 53.1467 418.116 51.1467 421.636 49.76C425.21 48.32 429.076 47.6 433.236 47.6C437.396 47.6 441.236 48.32 444.756 49.76C448.33 51.1467 451.423 53.12 454.036 55.68C456.65 58.24 458.676 61.2533 460.116 64.72C461.61 68.1333 462.356 71.8933 462.356 76C462.356 80.1067 461.61 83.8933 460.116 87.36C458.676 90.7733 456.65 93.76 454.036 96.32C451.423 98.88 448.33 100.88 444.756 102.32C441.236 103.707 437.396 104.4 433.236 104.4ZM433.236 100.64C436.81 100.64 440.116 100.027 443.156 98.8C446.196 97.5733 448.836 95.84 451.076 93.6C453.316 91.36 455.05 88.7467 456.276 85.76C457.556 82.7733 458.196 79.52 458.196 76C458.196 72.4267 457.556 69.1733 456.276 66.24C455.05 63.2533 453.316 60.64 451.076 58.4C448.836 56.16 446.196 54.4267 443.156 53.2C440.116 51.9733 436.81 51.36 433.236 51.36C429.663 51.36 426.356 51.9733 423.316 53.2C420.276 54.4267 417.61 56.16 415.316 58.4C413.076 60.64 411.316 63.2533 410.036 66.24C408.81 69.1733 408.196 72.4267 408.196 76C408.196 79.52 408.81 82.7733 410.036 85.76C411.316 88.7467 413.076 91.36 415.316 93.6C417.61 95.84 420.276 97.5733 423.316 98.8C426.356 100.027 429.663 100.64 433.236 100.64ZM475.999 104V62.24H479.999V97.84L509.759 62.24H513.279V104H509.279V68.4L479.519 104H475.999ZM494.479 55.84C491.226 55.84 488.533 54.9867 486.399 53.28C484.319 51.52 483.226 49.0933 483.119 46H486.079C486.186 48.1867 487.013 49.92 488.559 51.2C490.159 52.48 492.133 53.12 494.479 53.12C496.826 53.12 498.773 52.48 500.319 51.2C501.919 49.92 502.746 48.1867 502.799 46H505.839C505.786 49.0933 504.693 51.52 502.559 53.28C500.479 54.9867 497.786 55.84 494.479 55.84ZM522.291 103.84L522.691 100.4C523.011 100.453 523.331 100.533 523.651 100.64C524.024 100.693 524.344 100.72 524.611 100.72C526.424 100.72 527.864 100.053 528.931 98.72C529.997 97.3333 530.797 95.4933 531.331 93.2C531.917 90.9067 532.317 88.32 532.531 85.44C532.797 82.56 533.011 79.6267 533.171 76.64L533.891 62.24H563.171V104H559.171V64.56L560.291 65.84H536.451L537.491 64.48L536.851 76.96C536.637 80.5867 536.344 84.0533 535.971 87.36C535.597 90.6667 535.037 93.6 534.291 96.16C533.544 98.72 532.477 100.747 531.091 102.24C529.704 103.68 527.917 104.4 525.731 104.4C525.197 104.4 524.637 104.347 524.051 104.24C523.517 104.133 522.931 104 522.291 103.84Z" fill="#757575"/>
<path d="M578.86 62.105C577.11 62.105 575.488 61.79 573.995 61.16C572.502 60.53 571.195 59.655 570.075 58.535C568.955 57.3917 568.08 56.0733 567.45 54.58C566.843 53.0867 566.54 51.4767 566.54 49.75C566.54 48.0233 566.855 46.4133 567.485 44.92C568.115 43.4267 568.99 42.12 570.11 41C571.23 39.8567 572.537 38.97 574.03 38.34C575.547 37.71 577.18 37.395 578.93 37.395C580.68 37.395 582.302 37.71 583.795 38.34C585.312 38.9467 586.618 39.81 587.715 40.93C588.835 42.05 589.698 43.3567 590.305 44.85C590.935 46.32 591.25 47.93 591.25 49.68C591.25 51.43 590.935 53.0633 590.305 54.58C589.675 56.0733 588.788 57.3917 587.645 58.535C586.525 59.655 585.218 60.53 583.725 61.16C582.232 61.79 580.61 62.105 578.86 62.105ZM582.57 56.645L579.14 51.36H582.15L585.58 56.645H582.57ZM578.825 60.18C580.318 60.18 581.695 59.9117 582.955 59.375C584.215 58.8383 585.312 58.1033 586.245 57.17C587.202 56.2133 587.937 55.0933 588.45 53.81C588.963 52.5267 589.22 51.15 589.22 49.68C589.22 48.21 588.963 46.845 588.45 45.585C587.937 44.325 587.213 43.2283 586.28 42.295C585.37 41.3617 584.285 40.6383 583.025 40.125C581.788 39.5883 580.423 39.32 578.93 39.32C577.437 39.32 576.048 39.5883 574.765 40.125C573.505 40.6383 572.408 41.3733 571.475 42.33C570.565 43.2867 569.842 44.395 569.305 45.655C568.792 46.915 568.535 48.28 568.535 49.75C568.535 51.22 568.792 52.585 569.305 53.845C569.818 55.105 570.542 56.2133 571.475 57.17C572.408 58.1267 573.505 58.8733 574.765 59.41C576.025 59.9233 577.378 60.18 578.825 60.18ZM573.715 56.645V42.855H579.455C581.275 42.855 582.698 43.2867 583.725 44.15C584.752 45.0133 585.265 46.18 585.265 47.65C585.265 49.1667 584.752 50.345 583.725 51.185C582.698 52.025 581.275 52.445 579.455 52.445H576.725V56.645H573.715ZM576.69 50.1H579.28C580.26 50.1 581.018 49.89 581.555 49.47C582.092 49.0267 582.36 48.42 582.36 47.65C582.36 46.88 582.092 46.285 581.555 45.865C581.018 45.445 580.26 45.235 579.28 45.235H576.69V50.1Z" fill="#17B6C0"/>
</svg>
